<svg width="150" height="150" viewBox="0 0 150 150" fill="none" xmlns="http://www.w3.org/2000/svg">
<path d="M75 0C33.7795 0 0 34.0725 0 75.293C0 116.274 33.4717 150 75 150C116.477 150 150 116.325 150 75.293C150 34.0725 116.22 0 75 0ZM88.1836 139.893C83.9653 140.771 79.4827 141.211 75 141.211C70.5173 141.211 66.0347 140.771 61.8164 139.893V119.326C61.8164 114.404 63.1348 112.646 64.8926 110.273C65.7875 109.25 66.3277 108.332 70.3411 102.276L63.5742 101.221C46.1712 98.6721 39.3162 89.6187 36.5913 82.5874C33.0757 73.1838 34.9216 61.4056 41.2502 53.936C42.2173 52.7927 43.008 50.8587 42.3054 48.8377C40.9859 44.7945 41.1621 38.3789 42.041 35.9173C46.701 36.5833 51.4927 39.9216 55.489 42.334C57.3303 43.4086 58.2962 43.1248 59.1797 43.2129C62.3909 42.5446 67.4 40.9275 75.0881 40.9275C79.834 40.9275 84.8442 41.6302 89.7663 43.0367C90.6464 43.0161 92.0609 43.7645 94.5122 42.334C98.6893 39.7888 103.318 36.565 107.959 35.9173C108.838 38.3789 109.014 44.7945 107.696 48.8377C106.992 50.8587 107.783 52.7927 108.751 53.936C115.078 61.4067 116.924 73.1838 113.409 82.5874C110.684 89.6187 103.829 98.6721 86.4258 101.221L79.6589 102.276C83.8074 108.536 84.2445 109.286 85.1086 110.273C86.8652 112.646 88.1836 114.404 88.1836 119.326V139.893ZM96.9727 137.344V119.326C96.9727 114.316 95.9175 110.977 94.511 108.515C107.871 104.913 117.364 97.0013 121.582 85.6636C126.065 73.7114 124.044 59.4727 116.572 49.6284C117.891 43.7405 117.891 34.3357 114.727 29.9412C113.321 28.0083 111.386 26.9531 108.926 26.9531C108.838 26.9531 108.838 26.9531 108.838 26.9531C102.023 27.3216 96.6591 30.7537 90.9084 34.2476C85.635 32.8411 80.2734 32.1384 74.9119 32.1384C69.4633 32.1384 64.0137 32.9292 59.1808 34.2476C53.1269 30.5969 47.8146 27.3125 40.8108 26.9531C38.6135 26.9531 36.6795 28.0083 35.273 29.9412C32.1098 34.3357 32.1098 43.7405 33.4282 49.6284C25.9563 59.4727 23.9353 73.7984 28.418 85.6636C32.6363 97.0013 42.1291 104.913 55.489 108.515C54.3983 110.423 53.5355 112.885 53.1956 116.216C50.4971 117.146 48.1567 117.45 45.9801 116.81C43.6844 116.131 41.8957 114.599 40.3416 111.985C36.8511 106.121 30.9059 101.334 24.1367 101.957L24.9092 110.711C28.0437 110.424 31.1634 113.741 32.7839 116.475C35.4572 120.977 39.0587 123.929 43.491 125.238C46.7812 126.208 49.7887 126.185 53.0273 125.494V137.344C27.4509 128.379 8.78906 103.946 8.78906 75.293C8.78906 38.9065 38.6135 8.78906 75 8.78906C111.386 8.78906 141.211 38.9065 141.211 75.293C141.211 103.946 122.549 128.379 96.9727 137.344Z" fill="#429E9D"/>
</svg>
