<svg width="150" height="150" viewBox="0 0 150 150" fill="none" xmlns="http://www.w3.org/2000/svg">
<path d="M103.125 0H46.875C20.9906 0 0 20.9906 0 46.875V103.125C0 129.009 20.9906 150 46.875 150H103.125C129.009 150 150 129.009 150 103.125V46.875C150 20.9906 129.009 0 103.125 0ZM135.938 103.125C135.938 121.219 121.219 135.938 103.125 135.938H46.875C28.7812 135.938 14.0625 121.219 14.0625 103.125V46.875C14.0625 28.7812 28.7812 14.0625 46.875 14.0625H103.125C121.219 14.0625 135.938 28.7812 135.938 46.875V103.125Z" fill="#429E9D"/>
<path d="M75 37.5C54.2906 37.5 37.5 54.2906 37.5 75C37.5 95.7094 54.2906 112.5 75 112.5C95.7094 112.5 112.5 95.7094 112.5 75C112.5 54.2906 95.7094 37.5 75 37.5ZM75 98.4375C62.0812 98.4375 51.5625 87.9188 51.5625 75C51.5625 62.0719 62.0812 51.5625 75 51.5625C87.9188 51.5625 98.4375 62.0719 98.4375 75C98.4375 87.9188 87.9188 98.4375 75 98.4375Z" fill="#429E9D"/>
<path d="M115.312 39.6844C118.072 39.6844 120.309 37.4472 120.309 34.6875C120.309 31.9278 118.072 29.6907 115.312 29.6907C112.553 29.6907 110.316 31.9278 110.316 34.6875C110.316 37.4472 112.553 39.6844 115.312 39.6844Z" fill="#429E9D"/>
</svg>
