<svg width="150" height="150" viewBox="0 0 150 150" fill="none" xmlns="http://www.w3.org/2000/svg">
<path d="M34.0816 49.9031H1.85529V146.679H34.0816V49.9031Z" fill="#429E9D"/>
<path d="M139.843 58.7429C133.074 51.3533 124.12 47.6578 112.988 47.6578C108.887 47.6578 105.159 48.1624 101.805 49.1721C98.4528 50.1811 95.6213 51.5969 93.3095 53.42C90.9989 55.2431 89.1587 56.9355 87.7926 58.4973C86.4935 59.9808 85.2231 61.7088 83.9835 63.6636V49.9024H51.8533L51.9518 54.5905C52.0179 57.7164 52.0504 67.3512 52.0504 83.4962C52.0504 99.6426 51.9854 120.703 51.8547 146.68H83.9835V92.6751C83.9835 89.3555 84.3396 86.7194 85.0572 84.7646C86.4254 81.4426 88.4903 78.6614 91.2589 76.4162C94.0271 74.1683 97.4602 73.0453 101.563 73.0453C107.16 73.0453 111.28 74.982 113.917 78.8557C116.553 82.729 117.871 88.0841 117.871 94.9203V146.677H150V91.2118C149.998 76.9525 146.615 66.1301 139.843 58.7429Z" fill="#429E9D"/>
<path d="M18.1637 3.32056C12.7608 3.32056 8.38289 4.90048 5.02912 8.05724C1.67569 11.2147 0 15.2009 0 20.0197C0 24.7711 1.62746 28.7436 4.88272 31.9329C8.13696 35.1225 12.4344 36.7181 17.7728 36.7181H17.9681C23.4374 36.7181 27.8488 35.1238 31.2012 31.9329C34.5536 28.7436 36.1971 24.7724 36.1325 20.0197C36.0675 15.2013 34.4062 11.2147 31.1519 8.05724C27.898 4.89911 23.567 3.32056 18.1637 3.32056Z" fill="#429E9D"/>
</svg>
