<svg width="150" height="150" viewBox="0 0 150 150" fill="none" xmlns="http://www.w3.org/2000/svg">
<g clip-path="url(#clip0)">
<path d="M150 30.1655C140.564 30.6004 140.77 30.5649 139.704 30.6542L145.292 14.6954C145.292 14.6954 127.849 21.1121 123.427 22.2599C111.813 11.8218 94.5511 11.3606 82.2098 18.9457C72.1035 25.1587 66.679 35.828 68.4883 48.2987C48.8193 45.5692 32.2472 36.2457 19.1631 20.5284L15.0249 15.5583L11.9328 21.2368C8.0246 28.4123 6.72684 36.6165 8.27751 44.3379C8.9138 47.5056 9.99527 50.5268 11.4933 53.3558L7.94334 51.9802L7.5222 57.9117C7.09534 63.937 9.10148 70.9705 12.8895 76.7246C13.9561 78.3451 15.3294 80.1247 17.07 81.8802L15.2355 81.5987L17.474 88.3953C20.4163 97.3251 26.5274 104.234 34.4582 108.075C26.5377 111.436 20.1393 113.58 9.62219 117.04L0 120.203L8.88748 125.062C12.2761 126.915 24.25 133.103 36.0809 134.959C62.3794 139.083 91.9887 135.725 111.922 117.772C128.712 102.651 134.221 81.1421 133.076 58.7586C132.904 55.37 133.832 52.1359 135.69 49.6536C139.413 44.6835 149.977 30.1987 150 30.1655ZM128.662 44.3894C125.576 48.5104 124.03 53.7735 124.307 59.2072C125.462 81.7852 119.318 99.2947 106.047 111.247C90.5434 125.21 65.5369 130.69 37.4416 126.283C32.3536 125.486 27.095 123.699 22.7428 121.915C31.5605 118.881 38.3697 116.177 49.3664 110.972L64.7175 103.706L47.7688 102.621C39.6503 102.102 32.8903 98.1674 28.735 91.7793C30.9414 91.6512 33.0688 91.2941 35.1871 90.7036L51.3519 86.2015L35.0521 82.2098C27.1316 80.27 22.617 75.531 20.224 71.8964C18.6527 69.508 17.6262 67.0612 17.0105 64.8056C18.6447 65.2439 20.5502 65.5563 23.6229 65.8608L38.7096 67.3531L26.7563 58.0284C18.1435 51.3107 14.6919 41.2182 17.2222 31.5159C44.1021 59.396 75.6626 57.3006 78.8395 58.0376C78.1402 51.2455 78.1219 51.2295 77.9388 50.5829C73.8705 36.2011 82.7865 28.8986 86.808 26.4267C95.208 21.2643 108.541 20.4861 117.777 28.9913C119.772 30.827 122.469 31.5491 124.993 30.9219C127.259 30.3589 129.119 29.7627 130.94 29.1138L127.15 39.9376L131.988 39.941C131.075 41.1656 129.98 42.6315 128.662 44.3894Z" fill="#429E9D"/>
</g>
<defs>
<clipPath id="clip0">
<rect width="150" height="150" fill="white"/>
</clipPath>
</defs>
</svg>
