<svg width="31" height="31" viewBox="0 0 31 31" fill="none" xmlns="http://www.w3.org/2000/svg">
<path d="M28.4531 30.9022C28.1294 30.9027 27.8087 30.8385 27.5101 30.7134C27.2115 30.5882 26.9409 30.4047 26.7142 30.1735L0.720416 4.19734C0.30179 3.72643 0.079201 3.11324 0.0983031 2.48349C0.117405 1.85375 0.376748 1.25518 0.823147 0.810501C1.26955 0.36582 1.86918 0.108729 2.4991 0.0919413C3.12903 0.075154 3.74151 0.299937 4.21097 0.720211L30.192 26.6964C30.5347 27.0414 30.7678 27.4799 30.862 27.9569C30.9563 28.4339 30.9074 28.9281 30.7216 29.3775C30.5359 29.8268 30.2214 30.2113 29.8178 30.4825C29.4142 30.7538 28.9395 30.8998 28.4531 30.9022Z" fill="#16CB3E"/>
<path d="M28.4551 15.9504C28.1312 15.9495 27.8107 15.8846 27.512 15.7594C27.2133 15.6342 26.9422 15.4512 26.7145 15.2209L15.6947 4.20195C15.2331 3.74034 14.9738 3.11427 14.9738 2.46145C14.9738 1.80863 15.2331 1.18255 15.6947 0.72094C16.1564 0.25933 16.7825 0 17.4354 0C18.0882 0 18.7144 0.25933 19.176 0.72094L30.1958 11.7399C30.4264 11.9673 30.6095 12.2383 30.7345 12.5371C30.8595 12.8358 30.9239 13.1565 30.9239 13.4804C30.9239 13.8043 30.8595 14.1249 30.7345 14.4237C30.6095 14.7225 30.4264 14.9935 30.1958 15.2209C29.9698 15.4535 29.6991 15.638 29.4 15.7634C29.1008 15.8888 28.7795 15.9523 28.4551 15.9504Z" fill="#16CB3E"/>
<path d="M13.4814 30.9239C13.1575 30.923 12.837 30.8581 12.5382 30.7329C12.2395 30.6077 11.9685 30.4247 11.7407 30.1944L0.720994 19.1755C0.492411 18.9469 0.311081 18.6755 0.187373 18.3769C0.0636644 18.0783 0 17.7582 0 17.435C0 17.1117 0.0636644 16.7916 0.187373 16.493C0.311081 16.1944 0.492411 15.923 0.720994 15.6945C0.949578 15.4659 1.22095 15.2846 1.51961 15.1609C1.81826 15.0372 2.13836 14.9735 2.46163 14.9735C2.78489 14.9735 3.10499 15.0372 3.40365 15.1609C3.7023 15.2846 3.97367 15.4659 4.20226 15.6945L15.222 26.7134C15.4526 26.9408 15.6358 27.2118 15.7608 27.5106C15.8858 27.8094 15.9502 28.13 15.9502 28.4539C15.9502 28.7778 15.8858 29.0984 15.7608 29.3972C15.6358 29.696 15.4526 29.967 15.222 30.1944C14.996 30.427 14.7253 30.6116 14.4262 30.7369C14.1271 30.8623 13.8057 30.9259 13.4814 30.9239Z" fill="#16CB3E"/>
</svg>
