<svg width="73" height="48" viewBox="0 0 73 48" fill="none" xmlns="http://www.w3.org/2000/svg">
<g style="mix-blend-mode:multiply">
<path d="M6.97 42C10.5819 42 13.51 39.0719 13.51 35.46C13.51 31.848 10.5819 28.92 6.97 28.92C3.35806 28.92 0.429993 31.848 0.429993 35.46C0.429993 39.0719 3.35806 42 6.97 42Z" fill="#3EAEF7"/>
<path d="M23.02 25.96C27.4438 25.96 31.03 22.3738 31.03 17.95C31.03 13.5262 27.4438 9.94 23.02 9.94C18.5962 9.94 15.01 13.5262 15.01 17.95C15.01 22.3738 18.5962 25.96 23.02 25.96Z" fill="#3EAEF7"/>
<path d="M39.04 47.37C44.8003 47.37 49.47 42.7003 49.47 36.94C49.47 31.1797 44.8003 26.51 39.04 26.51C33.2797 26.51 28.61 31.1797 28.61 36.94C28.61 42.7003 33.2797 47.37 39.04 47.37Z" fill="#3EAEF7"/>
<path d="M59.89 24.78C66.7328 24.78 72.28 19.2328 72.28 12.39C72.28 5.54719 66.7328 0 59.89 0C53.0472 0 47.5 5.54719 47.5 12.39C47.5 19.2328 53.0472 24.78 59.89 24.78Z" fill="#3EAEF7"/>
<path d="M22.0528 17.0566L6.00754 34.5669L7.93921 36.337L23.9845 18.8266L22.0528 17.0566Z" fill="#3EAEF7"/>
<path d="M54.5429 17.0573L38.5007 34.5704L40.4327 36.3401L56.4749 18.827L54.5429 17.0573Z" fill="#3EAEF7"/>
<path d="M24.2954 17.0405L22.3635 18.8102L38.4057 36.3233L40.3376 34.5536L24.2954 17.0405Z" fill="#3EAEF7"/>
</g>
</svg>
