<svg width="455" height="263" viewBox="0 0 455 263" fill="none" xmlns="http://www.w3.org/2000/svg">
<rect width="455" height="263" fill="black"/>
<g clip-path="url(#clip0_19_2)">
<mask id="mask0_19_2" style="mask-type:luminance" maskUnits="userSpaceOnUse" x="123" y="100" width="210" height="62">
<path d="M332.25 100H123V161.654H332.25V100Z" fill="white"/>
</mask>
<g mask="url(#mask0_19_2)">
<path d="M147.637 123.722V113.284H142.146C142.278 113.19 142.414 113.097 142.55 113.01C144.449 111.776 146.658 111.126 148.938 111.126C155.413 111.126 160.683 116.388 160.683 122.854V123.597H171.737V122.854C171.737 119.783 171.133 116.802 169.942 113.991C168.794 111.279 167.15 108.846 165.057 106.757C162.965 104.667 160.528 103.026 157.812 101.881C155.001 100.69 152.013 100.087 148.938 100.087C144.515 100.087 140.221 101.355 136.525 103.754C135.436 104.461 134.409 105.26 133.456 106.141V100H123V113.02L136.438 123.724H147.637V123.722Z" fill="white"/>
<path d="M147.636 124.574V135.014H153.059C151.083 136.424 148.723 137.184 146.247 137.184C139.772 137.184 134.502 131.923 134.502 125.457V124.714H123.448V125.457C123.448 128.528 124.052 131.509 125.243 134.32C126.391 137.031 128.035 139.465 130.126 141.554C132.218 143.644 134.655 145.283 137.371 146.432C140.185 147.621 143.172 148.224 146.247 148.224C152.04 148.224 157.618 146.007 161.818 142.087V148.243H172.275V135.278L158.837 124.576H147.638L147.636 124.574Z" fill="white"/>
<path d="M207.595 130.759H218.16V130.827C217.48 133.413 216.172 135.273 214.241 136.407C212.31 137.541 210.23 138.108 208.006 138.108C204.461 138.108 201.724 136.849 199.793 134.33C197.862 131.812 196.897 128.444 196.897 124.226C196.897 120.006 197.873 116.751 199.827 114.188C201.779 111.625 204.461 110.343 207.87 110.343C210.369 110.343 212.412 111.056 214.003 112.485C215.594 113.914 216.638 115.808 217.137 118.168H229.474C229.155 114.628 228.077 111.487 226.237 108.742C224.398 105.998 221.92 103.854 218.809 102.31C215.696 100.769 212.163 99.9958 208.21 99.9958C203.257 99.9958 198.964 100.994 195.329 102.99C191.693 104.986 188.911 107.799 186.98 111.428C185.049 115.059 184.084 119.323 184.084 124.221C184.084 129.12 185.026 133.33 186.912 136.981C188.796 140.633 191.467 143.457 194.921 145.453C198.372 147.449 202.373 148.447 206.917 148.447C209.824 148.447 212.38 147.971 214.584 147.018C216.787 146.064 218.592 144.727 220.002 143.002L221.365 148.039H229.68V121.232H207.598L207.595 130.759Z" fill="white"/>
<path d="M257.823 112.929H256.119C253.665 112.929 251.666 113.36 250.123 114.222C248.577 115.084 247.283 116.378 246.237 118.102L245.282 112.929H234.445V148.043H246.235V131.167C246.235 125.95 248.621 123.34 253.391 123.34H257.821L257.823 112.929Z" fill="white"/>
<path d="M285.535 114.63C282.697 113.224 279.413 112.521 275.687 112.521C271.961 112.521 268.861 113.258 266.111 114.734C263.361 116.21 261.226 118.306 259.704 121.028C258.181 123.75 257.42 126.948 257.42 130.623C257.42 134.299 258.204 137.405 259.772 140.083C261.339 142.76 263.623 144.824 266.622 146.274C269.62 147.727 273.186 148.453 277.323 148.453C280.502 148.453 283.309 147.899 285.74 146.786C288.17 145.676 290.101 144.179 291.532 142.295C292.964 140.414 293.838 138.337 294.157 136.07H282.571C281.89 138.656 279.868 139.949 276.506 139.949C272.553 139.949 270.282 137.771 269.69 133.415V133.28H294.225C294.452 132.19 294.565 130.92 294.565 129.468C294.565 126.111 293.77 123.151 292.179 120.588C290.588 118.025 288.372 116.04 285.533 114.634L285.535 114.63ZM269.826 126.062C270.099 124.385 270.792 123.102 271.906 122.217C273.019 121.331 274.484 120.89 276.302 120.89C278.12 120.89 279.539 121.331 280.698 122.217C281.856 123.102 282.595 124.385 282.914 126.062H269.826Z" fill="white"/>
<path d="M319.637 112.929L312.345 136.271L304.985 112.929H292.444L305.94 148.247L305.463 149.54C305.144 150.494 304.713 151.129 304.168 151.445C303.624 151.761 302.805 151.921 301.714 151.921H296.194V161.652H306.962C308.825 161.652 310.359 161.312 311.562 160.631C312.766 159.951 313.766 158.974 314.561 157.705C315.356 156.435 316.162 154.711 316.981 152.532L332.248 112.927H319.639L319.637 112.929Z" fill="white"/>
</g>
</g>
<defs>
<clipPath id="clip0_19_2">
<rect width="209.25" height="63" fill="white" transform="translate(123 100)"/>
</clipPath>
</defs>
</svg>
