<svg width="105" height="128" viewBox="0 0 105 128" fill="none" xmlns="http://www.w3.org/2000/svg">
<g clip-path="url(#clip0_557_977)">
<path d="M71.0044 99.1516L100.222 69.9339C103.784 66.3723 103.784 60.5979 100.222 57.0363L46.2345 3.0487C42.6729 -0.512876 36.8984 -0.512879 33.3369 3.0487L4.1192 32.2664C0.557622 35.8279 0.55763 41.6024 4.11921 45.164L58.1068 99.1516C61.6684 102.713 67.4428 102.713 71.0044 99.1516Z" fill="#F364A2"/>
<path d="M4.60343 95.1923L33.8211 124.41C37.3827 127.972 43.1571 127.972 46.7187 124.41L100.706 70.4223C104.268 66.8607 104.268 61.0863 100.706 57.5247L71.4887 28.307C67.9271 24.7455 62.1526 24.7455 58.591 28.307L4.60343 82.2946C1.04185 85.8562 1.04185 91.6307 4.60343 95.1923Z" fill="#DA127D"/>
<path d="M64.29 69.15C67.786 69.15 70.62 66.316 70.62 62.82C70.62 59.324 67.786 56.49 64.29 56.49C60.7941 56.49 57.96 59.324 57.96 62.82C57.96 66.316 60.7941 69.15 64.29 69.15Z" fill="white"/>
</g>
<defs>
<clipPath id="clip0_557_977">
<rect width="105" height="128" fill="white"/>
</clipPath>
</defs>
</svg>
