<svg width="28" height="28" viewBox="0 0 28 28" fill="none" xmlns="http://www.w3.org/2000/svg">
  <path fill-rule="evenodd" clip-rule="evenodd"
    d="M2.17898 6.89443L9.04064 2.91339V14.0847C9.0271 18.2282 11.9369 21.9384 15.9429 22.9134L16.0376 22.9405L15.9835 23.0082C15.8888 23.13 15.8076 23.2384 15.6993 23.3467C15.3339 23.7123 14.9414 24.0373 14.5083 24.3216C14.0752 24.606 13.6286 24.8497 13.1549 25.0529C12.6677 25.256 12.167 25.4049 11.6527 25.5133C11.1113 25.6216 10.6512 25.6757 10.1504 25.6757H10.0963C9.55492 25.6757 9.01357 25.6216 8.48575 25.5133C7.97147 25.4049 7.47071 25.256 6.98349 25.0393C6.50981 24.8362 6.04966 24.5925 5.63011 24.3081C5.21056 24.0237 4.80455 23.6988 4.45267 23.3332C4.08725 22.9676 3.76244 22.5749 3.47823 22.1551C3.19402 21.7218 2.95041 21.2749 2.7474 20.801C2.5444 20.3271 2.39553 19.826 2.28725 19.3115C2.17898 18.7563 2.16545 18.1876 2.16545 17.7001V6.93505L2.17898 6.89443ZM19.4346 20.977C19.8271 19.8667 20.0301 18.7699 20.0436 17.7407V5.93302L25.2406 2.95401V14.1253C25.2406 14.6263 25.1865 15.1138 25.1053 15.5471C25.0106 15.994 24.8752 16.4408 24.6858 16.8741C24.5098 17.2939 24.2797 17.7001 24.0226 18.0657C23.7655 18.4449 23.4677 18.7969 23.1564 19.1084C22.8316 19.4334 22.4797 19.7177 22.1008 19.975C21.7218 20.2323 21.3158 20.4489 20.8963 20.625C20.4632 20.8145 20.0707 20.9364 19.57 21.0312C19.5564 21.0312 19.5294 21.0312 19.5158 21.0447L19.4211 21.0583L19.4346 20.977ZM0.108307 5.81115V17.6595C0.0947732 23.1436 4.56094 27.6256 10.0827 27.6392H10.1098C11.8557 27.6392 13.588 27.1788 15.0903 26.3122L22.385 22.1416C25.403 20.5843 27.2978 17.5105 27.2978 14.1253V1.74886C27.2978 1.70824 27.2842 1.68116 27.2436 1.66762L25.4572 0.624961C25.4301 0.611421 25.3895 0.611421 25.3624 0.624961L18.0406 4.74142C18.0136 4.75496 17.9865 4.79558 17.9865 4.82266V17.7137C17.9865 18.2553 17.9324 18.7969 17.8241 19.325C17.7158 19.8396 17.5534 20.3406 17.3504 20.8145C17.3098 20.9093 17.2692 20.9906 17.2286 21.0854L17.2151 21.126H17.1745C17.0527 21.1124 16.9715 21.0989 16.7549 21.0583L16.7008 21.0447C16.2406 20.9499 15.3068 20.6927 14.197 19.975C13.8181 19.7177 13.4662 19.4334 13.1414 19.1084C12.8166 18.7834 12.5324 18.4313 12.2752 18.0522C12.0181 17.673 11.8015 17.2668 11.6256 16.847C11.4497 16.4273 11.3143 15.9804 11.2196 15.52C11.1384 15.1138 11.0978 14.694 11.1113 14.1118V1.74886C11.1113 1.70824 11.0978 1.68116 11.0572 1.66762L9.27071 0.584341C9.25718 0.570801 9.23011 0.570801 9.21658 0.570801C9.20304 0.570801 9.17598 0.570801 9.16244 0.584341L0.148909 5.72991C0.121841 5.74345 0.108307 5.78407 0.108307 5.81115Z"
    fill="#2015FF" />
</svg>