<svg width="150" height="150" viewBox="0 0 150 150" fill="none" xmlns="http://www.w3.org/2000/svg">
<g clip-path="url(#clip0)">
<path d="M79.9526 1.96643C75.9072 -0.710023 70.63 -0.648441 66.6461 2.1275L7.03459 43.6481C3.856 45.8651 1.96117 49.4889 1.96117 53.3686V98.1057C1.96117 102.085 3.95548 105.794 7.27618 107.987L67.8636 148.039C71.8238 150.659 76.9683 150.659 80.9285 148.039L142.719 107.215C146.035 105.022 148.034 101.313 148.034 97.3336V53.3781C148.034 49.4037 146.04 45.6945 142.724 43.5012L79.9526 1.96643ZM126.106 50.4269L103.269 65.7608L81.8522 50.1853L81.7148 19.5505L126.106 50.4269ZM66.2198 19.5789V49.56L44.2729 64.9082L22.3828 50.2279L66.2198 19.5789ZM16.3809 65.0029L30.5495 74.496L16.3809 84.4108V65.0029ZM66.594 128.92L22.3922 99.2758L44.4718 83.8423L66.594 98.6836V128.92ZM58.1999 74.2497L72.5107 64.2402L89.1805 75.1971L74.4055 85.1213L58.1999 74.2497ZM82.2075 128.92V98.6742L103.349 84.5055L126.111 99.47L82.2075 128.92ZM132.421 84.9224L117.414 75.0598L132.421 64.9934V84.9224Z" fill="#429E9D"/>
</g>
<defs>
<clipPath id="clip0">
<rect width="150" height="150" fill="white"/>
</clipPath>
</defs>
</svg>
