<svg width="150" height="150" viewBox="0 0 150 150" fill="none" xmlns="http://www.w3.org/2000/svg">
<path fill-rule="evenodd" clip-rule="evenodd" d="M74.9998 149.991C33.6435 149.991 0 116.345 0 74.9961C0 33.6546 33.6435 0.00891113 74.9998 0.00891113C116.356 0.00891113 150 33.6546 150 74.9961C150 116.345 116.356 149.991 74.9998 149.991ZM134.939 84.727C132.865 84.0802 116.149 79.0864 97.1272 82.1293C105.067 103.945 108.3 121.725 108.92 125.41C122.538 116.202 132.237 101.618 134.939 84.727ZM98.7172 130.972C97.8086 125.647 94.2843 107.081 85.7607 84.9397C85.6324 84.9843 85.499 85.0236 85.3605 85.0731C51.1244 96.9948 38.8325 120.752 37.7386 122.984C48.0276 131.006 60.9669 135.795 74.9998 135.795C83.4071 135.795 91.4264 134.071 98.7172 130.972ZM29.8995 115.679C31.2724 113.322 47.936 85.7395 79.2432 75.6188C80.0358 75.3618 80.8335 75.1247 81.6337 74.9023C80.1122 71.4473 78.4554 68.0042 76.7121 64.5961C46.3977 73.6701 16.9802 73.2946 14.3198 73.2356C14.3023 73.853 14.2928 74.4729 14.2928 75.0902C14.2928 90.6842 20.2028 104.918 29.8995 115.679ZM15.5744 62.6598C18.2916 62.6941 43.3006 62.798 71.6983 55.2651C61.6413 37.3814 50.7913 22.3477 49.1884 20.1598C32.206 28.1664 19.5088 43.8226 15.5744 62.6598ZM60.7742 16.0821C62.4535 18.3271 73.4784 33.3386 83.4267 51.6172C105.017 43.5168 114.151 31.2442 115.24 29.693C104.521 20.1747 90.4234 14.3978 74.9995 14.3978C70.1001 14.3978 65.3383 14.9805 60.7742 16.0821ZM121.99 36.7048C120.713 38.4389 110.535 51.479 88.0919 60.6345C89.505 63.5342 90.8579 66.4779 92.1226 69.4321C92.565 70.4843 93.0017 71.5266 93.4267 72.5638C113.627 70.0247 133.697 74.0926 135.705 74.5223C135.569 60.1949 130.449 47.0382 121.99 36.7048Z" fill="#429E9D"/>
</svg>
