<svg width="512" height="512" viewBox="0 0 512 512" fill="none" xmlns="http://www.w3.org/2000/svg">
<path d="M32 0L72.8 460.8L256 512L439.136 460.832L480 0H32Z" fill="#429E9D"/>
<mask id="mask0" mask-type="alpha" maskUnits="userSpaceOnUse" x="256" y="32" width="220" height="448">
<rect x="256" y="32" width="220" height="448" fill="#C4C4C4"/>
</mask>
<g mask="url(#mask0)">
<path d="M75.75 43L108.581 413.8L256 455L403.367 413.826L436.25 43H75.75Z" fill="#67C7C6"/>
</g>
<path d="M95.35 260.25H125.45L127.9 284.05L161.15 293.15L195.1 283.7L203.85 183.6H146.1V153.5H237.1L223.1 307.15L161.15 324.65L99.55 307.15L95.35 260.25ZM260.55 153.85H412.1L398.1 307.5L366.95 316.25L373.6 245.2H299.05L305.7 316.25L274.55 307.5L260.55 153.85ZM376.05 215.1L378.85 183.95H293.45L296.25 215.1H376.05Z" fill="white"/>
</svg>
