<svg width="162" height="36" viewBox="0 0 162 36" fill="none" xmlns="http://www.w3.org/2000/svg">
<path d="M8.964 28.216C7.308 28.216 5.832 27.928 4.536 27.352C3.24 26.776 2.22 25.96 1.476 24.904C0.732 23.824 0.36 22.54 0.36 21.052C0.36 20.14 0.552 19.54 0.936 19.252C1.344 18.94 1.944 18.784 2.736 18.784C3.336 18.784 3.864 18.892 4.32 19.108C4.776 19.3 5.016 19.684 5.04 20.26C5.088 20.86 5.208 21.46 5.4 22.06C5.616 22.636 5.988 23.128 6.516 23.536C7.044 23.92 7.8 24.112 8.784 24.112C9.984 24.112 10.92 23.776 11.592 23.104C12.264 22.408 12.6 21.352 12.6 19.936V5.788H8.892C8.436 5.788 8.076 5.584 7.812 5.176C7.572 4.768 7.452 4.276 7.452 3.7C7.452 3.22 7.56 2.764 7.776 2.332C8.016 1.9 8.388 1.684 8.892 1.684H15.228C15.732 1.684 16.2 1.816 16.632 2.08C17.064 2.32 17.28 2.68 17.28 3.16V19.936C17.28 21.952 16.896 23.572 16.128 24.796C15.384 25.996 14.388 26.872 13.14 27.424C11.892 27.952 10.5 28.216 8.964 28.216ZM28.0882 28.324C26.6962 28.324 25.4122 27.988 24.2362 27.316C23.0602 26.62 22.1122 25.708 21.3922 24.58C20.6722 23.452 20.3122 22.24 20.3122 20.944V17.992C20.3122 16.696 20.6602 15.496 21.3562 14.392C22.0762 13.264 23.0242 12.364 24.2002 11.692C25.3762 11.02 26.6722 10.684 28.0882 10.684C29.4802 10.684 30.7642 11.02 31.9402 11.692C33.1402 12.34 34.1002 13.228 34.8202 14.356C35.5402 15.46 35.9002 16.672 35.9002 17.992V20.944C35.9002 22.216 35.5402 23.416 34.8202 24.544C34.1002 25.672 33.1402 26.584 31.9402 27.28C30.7642 27.976 29.4802 28.324 28.0882 28.324ZM28.0882 24.256C28.9522 24.256 29.6962 23.92 30.3202 23.248C30.9442 22.552 31.2562 21.784 31.2562 20.944V17.992C31.2562 17.176 30.9442 16.432 30.3202 15.76C29.7202 15.088 28.9762 14.752 28.0882 14.752C27.2242 14.752 26.4802 15.088 25.8562 15.76C25.2562 16.432 24.9562 17.176 24.9562 17.992V20.944C24.9562 21.784 25.2562 22.552 25.8562 23.248C26.4802 23.92 27.2242 24.256 28.0882 24.256ZM41.1947 28C40.5227 28 39.9707 27.844 39.5387 27.532C39.1067 27.22 38.8907 26.872 38.8907 26.488V2.368C38.8907 1.936 39.1067 1.588 39.5387 1.324C39.9707 1.06 40.5227 0.927999 41.1947 0.927999C41.8187 0.927999 42.3587 1.06 42.8147 1.324C43.2947 1.588 43.5347 1.936 43.5347 2.368V13.42C43.8707 12.724 44.4227 12.1 45.1907 11.548C45.9827 10.972 46.9427 10.684 48.0707 10.684C49.1747 10.684 50.1947 11.02 51.1307 11.692C52.0907 12.34 52.8467 13.228 53.3987 14.356C53.9747 15.46 54.2627 16.672 54.2627 17.992V26.488C54.2627 26.992 54.0227 27.376 53.5427 27.64C53.0627 27.88 52.5227 28 51.9227 28C51.3947 28 50.8787 27.88 50.3747 27.64C49.8707 27.376 49.6187 26.992 49.6187 26.488V17.992C49.6187 17.464 49.4747 16.948 49.1867 16.444C48.9227 15.94 48.5507 15.532 48.0707 15.22C47.5907 14.908 47.0627 14.752 46.4867 14.752C45.7667 14.752 45.0947 15.04 44.4707 15.616C43.8467 16.192 43.5347 16.984 43.5347 17.992V26.488C43.5347 26.872 43.2947 27.22 42.8147 27.532C42.3587 27.844 41.8187 28 41.1947 28ZM60.0376 28C59.3656 28 58.8136 27.844 58.3816 27.532C57.9496 27.22 57.7336 26.872 57.7336 26.488V12.34C57.7336 11.908 57.9496 11.56 58.3816 11.296C58.8136 11.032 59.3656 10.9 60.0376 10.9C60.5896 10.9 61.0696 11.032 61.4776 11.296C61.8856 11.56 62.0896 11.908 62.0896 12.34V13.42C62.4496 12.724 63.0376 12.1 63.8536 11.548C64.6936 10.972 65.7136 10.684 66.9136 10.684C68.0176 10.684 69.0376 11.02 69.9736 11.692C70.9336 12.34 71.6896 13.228 72.2416 14.356C72.8176 15.46 73.1056 16.672 73.1056 17.992V26.488C73.1056 26.992 72.8656 27.376 72.3856 27.64C71.9056 27.88 71.3656 28 70.7656 28C70.2376 28 69.7216 27.88 69.2176 27.64C68.7136 27.376 68.4616 26.992 68.4616 26.488V17.992C68.4616 17.176 68.1496 16.432 67.5256 15.76C66.9256 15.088 66.1936 14.752 65.3296 14.752C64.6096 14.752 63.9376 15.04 63.3136 15.616C62.6896 16.192 62.3776 16.984 62.3776 17.992V26.488C62.3776 26.872 62.1376 27.22 61.6576 27.532C61.2016 27.844 60.6616 28 60.0376 28ZM85.2604 28C84.8284 28 84.3844 27.916 83.9284 27.748C83.4724 27.58 83.0884 27.352 82.7764 27.064C82.4644 26.776 82.3084 26.44 82.3084 26.056C82.3084 25.984 82.3204 25.864 82.3444 25.696L89.2924 3.052C89.4604 2.524 89.8324 2.128 90.4084 1.864C91.0084 1.6 91.6444 1.468 92.3164 1.468C92.9884 1.468 93.6124 1.6 94.1884 1.864C94.7884 2.128 95.1724 2.524 95.3404 3.052L102.288 25.696C102.336 25.864 102.36 25.984 102.36 26.056C102.36 26.44 102.192 26.776 101.856 27.064C101.544 27.352 101.16 27.58 100.704 27.748C100.248 27.916 99.8044 28 99.3724 28C98.9884 28 98.6524 27.928 98.3644 27.784C98.1004 27.64 97.9204 27.4 97.8244 27.064L96.4564 22.276H88.1764L86.8444 27.064C86.7484 27.4 86.5564 27.64 86.2684 27.784C85.9804 27.928 85.6444 28 85.2604 28ZM89.1844 18.604H95.4484L92.3164 7.552L89.1844 18.604ZM104.152 35.956C103.552 35.956 103.048 35.836 102.64 35.596C102.232 35.38 102.028 34.84 102.028 33.976C102.028 33.472 102.112 33.016 102.28 32.608C102.472 32.224 102.784 32.032 103.216 32.032C103.6 32.032 104.068 31.948 104.62 31.78C105.172 31.636 105.724 31.372 106.276 30.988C106.828 30.604 107.296 30.064 107.68 29.368C108.064 28.696 108.292 27.82 108.364 26.74L102.172 13.492C102.076 13.276 102.028 13.072 102.028 12.88C102.028 12.472 102.196 12.1 102.532 11.764C102.892 11.428 103.312 11.164 103.792 10.972C104.272 10.756 104.716 10.648 105.124 10.648C105.412 10.648 105.676 10.708 105.916 10.828C106.18 10.948 106.36 11.152 106.456 11.44L110.776 22.204L114.232 11.44C114.352 11.152 114.532 10.948 114.772 10.828C115.012 10.708 115.252 10.648 115.492 10.648C115.852 10.648 116.284 10.756 116.788 10.972C117.292 11.164 117.724 11.44 118.084 11.8C118.468 12.136 118.66 12.52 118.66 12.952C118.66 13.168 118.624 13.348 118.552 13.492L113.296 26.92C112.864 28 112.444 29.068 112.036 30.124C111.628 31.204 111.112 32.176 110.488 33.04C109.888 33.928 109.084 34.636 108.076 35.164C107.068 35.692 105.76 35.956 104.152 35.956ZM128.762 28.324C127.058 28.324 125.546 28.024 124.226 27.424C122.93 26.8 121.91 25.936 121.166 24.832C120.422 23.704 120.05 22.408 120.05 20.944V17.884C120.05 16.588 120.398 15.4 121.094 14.32C121.814 13.216 122.762 12.34 123.938 11.692C125.138 11.02 126.47 10.684 127.934 10.684C129.254 10.684 130.478 10.972 131.606 11.548C132.734 12.124 133.646 12.916 134.342 13.924C135.038 14.932 135.386 16.108 135.386 17.452C135.386 18.46 135.218 19.192 134.882 19.648C134.546 20.104 134.114 20.392 133.586 20.512C133.058 20.608 132.53 20.656 132.002 20.656H124.694V21.196C124.694 22.228 125.078 23.068 125.846 23.716C126.638 24.34 127.658 24.652 128.906 24.652C129.698 24.652 130.358 24.544 130.886 24.328C131.414 24.088 131.858 23.86 132.218 23.644C132.602 23.404 132.974 23.284 133.334 23.284C133.886 23.284 134.318 23.536 134.63 24.04C134.942 24.544 135.098 24.976 135.098 25.336C135.098 25.744 134.834 26.188 134.306 26.668C133.802 27.124 133.07 27.52 132.11 27.856C131.174 28.168 130.058 28.324 128.762 28.324ZM124.694 17.92H129.95C130.334 17.92 130.61 17.86 130.778 17.74C130.946 17.596 131.03 17.332 131.03 16.948C131.03 16.108 130.706 15.424 130.058 14.896C129.434 14.368 128.702 14.104 127.862 14.104C127.022 14.104 126.278 14.356 125.63 14.86C125.006 15.364 124.694 16.048 124.694 16.912V17.92ZM140.475 28C139.803 28 139.251 27.844 138.819 27.532C138.387 27.22 138.171 26.872 138.171 26.488V12.34C138.171 11.908 138.387 11.56 138.819 11.296C139.251 11.032 139.803 10.9 140.475 10.9C141.027 10.9 141.507 11.032 141.915 11.296C142.323 11.56 142.527 11.908 142.527 12.34V13.42C142.887 12.724 143.475 12.1 144.291 11.548C145.131 10.972 146.151 10.684 147.351 10.684C148.455 10.684 149.475 11.02 150.411 11.692C151.371 12.34 152.127 13.228 152.679 14.356C153.255 15.46 153.543 16.672 153.543 17.992V26.488C153.543 26.992 153.303 27.376 152.823 27.64C152.343 27.88 151.803 28 151.203 28C150.675 28 150.159 27.88 149.655 27.64C149.151 27.376 148.899 26.992 148.899 26.488V17.992C148.899 17.176 148.587 16.432 147.963 15.76C147.363 15.088 146.631 14.752 145.767 14.752C145.047 14.752 144.375 15.04 143.751 15.616C143.127 16.192 142.815 16.984 142.815 17.992V26.488C142.815 26.872 142.575 27.22 142.095 27.532C141.639 27.844 141.099 28 140.475 28ZM159.319 28C158.647 28 158.095 27.844 157.663 27.532C157.231 27.22 157.015 26.872 157.015 26.488V12.34C157.015 11.908 157.231 11.56 157.663 11.296C158.095 11.032 158.647 10.9 159.319 10.9C159.967 10.9 160.519 11.032 160.975 11.296C161.431 11.56 161.659 11.908 161.659 12.34V26.488C161.659 26.872 161.431 27.22 160.975 27.532C160.519 27.844 159.967 28 159.319 28ZM159.319 7.084C158.599 7.084 157.987 6.856 157.483 6.4C157.003 5.944 156.763 5.416 156.763 4.816C156.763 4.216 157.003 3.688 157.483 3.232C157.987 2.776 158.599 2.548 159.319 2.548C160.015 2.548 160.603 2.776 161.083 3.232C161.587 3.688 161.839 4.216 161.839 4.816C161.839 5.416 161.587 5.944 161.083 6.4C160.603 6.856 160.015 7.084 159.319 7.084Z" fill="#FF575D"/>
</svg>
